<?xml version="1.0" encoding="UTF-8" standalone="no"?>
<!-- Created with Inkscape (http://www.inkscape.org/) -->

<svg
   xmlns:dc="http://purl.org/dc/elements/1.1/"
   xmlns:cc="http://creativecommons.org/ns#"
   xmlns:rdf="http://www.w3.org/1999/02/22-rdf-syntax-ns#"
   xmlns:svg="http://www.w3.org/2000/svg"
   xmlns="http://www.w3.org/2000/svg"
   xmlns:sodipodi="http://sodipodi.sourceforge.net/DTD/sodipodi-0.dtd"
   xmlns:inkscape="http://www.inkscape.org/namespaces/inkscape"
   id="svg2"
   style="fill-rule:evenodd"
   xml:space="preserve"
   version="1.0"
   viewBox="0 0 8283.5166 5856.9712"
   inkscape:version="0.92.3 (2405546, 2018-03-11)"
   sodipodi:docname="HolySpiritLogo.svg"
   width="8283.5166"
   height="5856.9712"><sodipodi:namedview
   pagecolor="#ffffff"
   bordercolor="#666666"
   borderopacity="1"
   objecttolerance="10"
   gridtolerance="10"
   guidetolerance="10"
   inkscape:pageopacity="0"
   inkscape:pageshadow="2"
   inkscape:window-width="1600"
   inkscape:window-height="877"
   id="namedview13"
   showgrid="false"
   inkscape:zoom="0.060554225"
   inkscape:cx="4116.8877"
   inkscape:cy="5.4855943"
   inkscape:window-x="1272"
   inkscape:window-y="-8"
   inkscape:window-maximized="1"
   inkscape:current-layer="svg2"><inkscape:grid
     type="xygrid"
     id="grid4796"
     originx="-17.112305"
     originy="-5840.5144" /></sodipodi:namedview>
 <defs
   id="defs4">
  <style
   id="style6"
   type="text/css" />
 </defs>
 <rect
   id="rect3386"
   style="fill:#d40000;fill-opacity:1;fill-rule:nonzero;stroke-width:0.50093836"
   height="5856.9712"
   width="8283.5166"
   y="0"
   x="-8283.5166"
   transform="scale(-1,1)" /><g
   id="g3258"
   transform="matrix(-0.47654765,0,0,0.47654765,6793.939,166.021)"
   style="fill:#ffdd55;fill-opacity:1"><path
     id="path11"
     style="fill:#ffdd55;fill-opacity:1"
     d="m -2418.8,2520.4 c 115.1,27.8 266,-158.8 428.7,-365.2 436.6,-547.8 924.8,-1167 1810,-865.3 1167,393 2008.4,575.5 2885.6,460.4 786,-103.2 1595.7,-472.3 2758.7,-1186.8 l 333.4,-127 C 4325,1341.5 3304.9,1809.9 2324.5,1936.9 1443.3,2052 593.9,1869.4 -577,1472.5 c -484.3,-162.8 -766.1,190.5 -1016.2,508 -357.2,452.5 -682.7,861.4 -1222.5,726.4 z"
     inkscape:connector-curvature="0" /><path
     id="path13"
     style="fill:#ffdd55;fill-opacity:1"
     d="m 3872.5,10260 c 8,8 4,8 11.9,12 456.5,433 1468.6,532 2611.8,330 1242.4,-222 2564.1,-833.8 3500.9,-1810.2 11.9,-11.9 23.9,-23.8 31.9,-35.7 937,-992.3 2274,-107.2 2854,273.9 51,35.7 0,15.8 47,39.7 l -75,7.9 c -127,-63.5 -210,-119.1 -314,-186.6 -381,-254 -1270,-841.4 -2115,59.6 -12,11.9 -24,23.8 -32,31.7 -940.7,980.4 -2266.4,1591.7 -3504.8,1813.7 -1337.7,238 -2639.6,8 -3393.8,-698 -11.9,-12 -7.9,-12 -7.9,-12 z"
     inkscape:connector-curvature="0" /><path
     id="path15"
     style="fill:#ffdd55;fill-opacity:1"
     d="m -2815.7,3877.9 c 146.9,150.8 496.2,55.5 829.6,-31.8 285.8,-79.4 555.7,-150.8 746.2,-27.8 789.88,516 968.5,968.5 1194.7,1536.1 103.25,262 222.33,555.7 432.7,897.1 L 109.65,5969.7 c -222.28,-357.3 -341.36,-658.9 -448.53,-924.9 -146.86,-373.1 -261.97,-666.8 -631.11,-908.9 -170.71,-111.2 -440.61,-39.7 -722.41,35.7 -345.3,95.2 -706.5,190.5 -1020.1,-123.1 z"
     inkscape:connector-curvature="0" /><path
     id="path17"
     style="fill:#ffdd55;fill-opacity:1"
     d="m 1796.6,5001.2 c 55.6,301.6 -484.3,809.7 -1159,1444.8 -1480.6,1397.2 -3453.3,3258.7 -3016.7,4914 l 23.8,75 254.1,-365 c 103.2,-147 357.2,-309 611.2,-472 377.1,-238 750.23,-476 1051.9,-905.2 31.74,214.4 -99.24,397.2 -230.23,575.2 -194.49,266 -388.97,536 -218.31,858 v 4 l 11.91,-8 c 285.79,-179 539.82,-282 770.04,-330 230.22,-47 432.65,-47 619.2,-23 230.22,31 480.28,-56 722.39,-227 51.6,-35 103.2,-75 154.8,-119 31.8,-28 67.5,-59 103.2,-91 0,182 -63.5,298 -127,417 -11.9,23 -27.8,47 -31.7,59 l -12,16 12,-4 c 1802,-413 1754.4,-1091.4 1555.9,-3373.8 238.2,329.5 535.9,583.5 869.3,778 543.8,321.5 1186.8,468.4 1817.9,492.2 635.1,23.8 1258.3,-79.4 1774.3,-262 452.5,-162.7 853.3,-416.8 1143.1,-738.3 230.2,269.9 313.6,273.9 468.4,281.9 95.2,7.9 222.3,11.9 424.7,83.3 l 619.2,214.3 -325.5,-539.8 c -71.4,-119 -75.4,-242.1 -27.8,-361.2 8,-23.8 15.9,-39.7 19.9,-55.5 134.9,-27.8 404.4,-99.3 607.4,-198.5 44,-23.8 87,-47.6 127,-71.5 83,-59.5 182,-154.8 302,-297.6 v -4 l 79,-95.3 h -16 c -36,-4 -63,-43.6 -91,-79.4 393,-265.9 738,-531.8 917,-877.2 l 43,-91.3 -210,234.2 c -202,226.3 -842,281.8 -1433,329.5 -571.5,47.6 -1107.4,91.3 -1417,456.4 -555.7,-174.6 -905,-468.3 -1270.1,-777.9 -190.6,-162.8 -389,-329.5 -623.2,-484.3 345.3,4 654.9,-11.9 932.8,-55.6 575.5,-87.3 1024,-269.9 1413,-512 l 428.7,-265.9 -146.9,-55.6 c -3.9,-4 -11.9,-4 -15.8,-7.9 107.1,-31.8 194.5,-67.5 265.9,-103.2 39.7,-19.9 71.5,-39.7 99.2,-59.6 35.8,-23.8 71.5,-47.6 99.3,-75.4 l 71.4,-95.3 27.8,-35.7 -95.3,127 c 202.5,-186.5 389.2,-373.1 579.2,-567.6 413,-412.8 846,-849.4 1461,-1234.4 l 397,-246.1 -111,-79.4 c -250,-178.6 -500,-262 -758,-297.7 -207,-23.8 -421,-19.8 -651,-7.9 357,-174.7 813,-246.1 1353,-333.4 195,-27.8 397,-59.6 608,-99.3 l 1075,-202.4 -786,-127 C 8897.6,396.81 6861.4,1921 5460.2,2968.9 c -908.9,678.7 -1548,1159 -2310.1,686.7 -146.9,-91.3 -222.3,-226.3 -293.7,-361.2 -131,-242.2 -258,-472.4 -785.9,-397 -301.7,39.7 -488.3,353.3 -698.6,702.6 -47.7,79.4 -99.3,162.7 -186.6,206.4 L 264.45,4243 899.53,4131.9 c 281.77,-51.6 583.47,218.3 758.17,520 35.7,59.5 63.5,119 87.3,178.6 23.8,59.5 39.7,115.1 51.6,170.7 z M 9957.4,3993 c -4,0 -11.9,3.9 -19.9,11.9 -23.8,15.8 -51.6,35.7 -87.3,51.6 -194.5,99.2 -535.8,206.4 -1008.2,182.6 l -1421,-63.5 1127.3,392.9 h 4 c 115.1,39.7 210.3,99.2 293.7,154.8 4,0 11.9,4 15.9,7.9 -273.9,123.1 -583.5,214.4 -944.7,270 -571.6,83.3 -1270.2,75.4 -2155.3,-63.6 l -2556.2,-404.8 2262.5,730.3 c 730.3,238.2 1151,591.5 1551.9,928.8 385.1,329.5 754.2,639.1 1373.4,809.8 l 174.7,47.6 115.1,-369.1 h 3.9 c 27.8,-83.4 504.1,-123.1 1024.1,-166.8 452.7,-35.7 936.7,-75.4 1349.7,-309.6 -99,67.5 -222,150.9 -345,234.2 -36,23.8 -72,47.7 -131,87.4 l -485,321.5 h 203 c 28,0 47,19.8 67,47.6 -178,67.5 -369,111.1 -448.3,127 l -11.9,4 -43.7,43.6 c -242.1,226.3 -420.7,436.7 -496.2,611.3 -43.6,-4 -79.3,-7.9 -111.1,-7.9 -162.7,-11.9 -242.1,-15.9 -496.2,-321.5 l -67.4,-71.5 -214.4,373.1 -7.9,8 c -83.4,138.9 -389,309.6 -833.6,468.3 -512,182.6 -1135.2,285.8 -1766.3,262 C 5241.9,8367.1 4602.9,8216.3 4055.1,7898.7 3507.3,7577.2 3054.8,7085 2800.8,6378.5 L 2399.9,5263.1 2503.1,6704 c 27.8,377.1 59.6,718.4 87.3,1028 166.7,1917.2 218.3,2489 -960.5,2763 11.9,-20 19.8,-32 23.8,-44 75.4,-131 142.9,-254 138.9,-456.5 l -146.8,158.5 7.9,-12 67.5,-95 c -31.8,32 -63.5,60 -95.3,87 -43.7,36 -83.3,64 -123,96 -234.2,162 -468.4,246 -698.63,214 -182.59,-24 -388.99,-28 -619.21,24 -230.21,47 -484.25,151 -777.97,333 -162.74,-309 3.97,-540 170.68,-770 186.55,-249.8 369.14,-503.9 246.09,-797.6 l -71.45,-174.7 -222.27,488.3 c -166.71,361.2 -456.47,548 -746.24,734 -289.7,183 -579.5,369 -877.2,703 C -2458.5,9438.8 -791.4,7867 462.9,6684.1 1407.6,5791 2165.7,5076.6 2094.3,4679.6 v -3.9 c -11.9,-51.6 -31.8,-111.2 -55.6,-170.7 -19.8,-55.6 -51.6,-119.1 -83.3,-178.6 -150.9,-254.1 -393,-488.2 -635.1,-524 131,-150.8 234.2,-325.4 333.4,-488.2 23.8,-43.6 47.6,-79.4 123,-91.3 528,-75.4 651,154.8 786,397 71.4,134.9 146.8,273.8 293.7,361.2 766,476.3 1421,-12 2345.8,-706.6 1278.1,-952.6 3088.1,-2306.1 6505.8,-2016.4 -488,103.2 -901,262 -1278,635.1 l -262,262 55,-4 c 294,-23.8 564,-39.7 822,-3.9 226,27.7 441,95.2 659,230.2 -480,357.2 -873,750.2 -1243,1127.2 -170,170.7 -337,337.4 -499.6,484.3 z M 804.3,10443"
     inkscape:connector-curvature="0" /></g>
<metadata
   id="metadata10"><rdf:RDF><cc:Work><dc:format>image/svg+xml</dc:format><dc:type
         rdf:resource="http://purl.org/dc/dcmitype/StillImage" /><cc:license
         rdf:resource="http://creativecommons.org/licenses/publicdomain/" /><dc:publisher><cc:Agent
           rdf:about="http://openclipart.org/"><dc:title>Openclipart</dc:title></cc:Agent></dc:publisher><dc:title></dc:title><dc:date>2010-04-03T09:36:05</dc:date><dc:description>Holyspirit</dc:description><dc:source>https://openclipart.org/detail/36379/holyspirit-by-ceruza</dc:source><dc:creator><cc:Agent><dc:title>Ceruza</dc:title></cc:Agent></dc:creator><dc:subject><rdf:Bag><rdf:li>Holyspirit</rdf:li><rdf:li>holy</rdf:li><rdf:li>pigeon</rdf:li><rdf:li>religion</rdf:li><rdf:li>spirit</rdf:li><rdf:li>spiritual</rdf:li></rdf:Bag></dc:subject></cc:Work><cc:License
       rdf:about="http://creativecommons.org/licenses/publicdomain/"><cc:permits
         rdf:resource="http://creativecommons.org/ns#Reproduction" /><cc:permits
         rdf:resource="http://creativecommons.org/ns#Distribution" /><cc:permits
         rdf:resource="http://creativecommons.org/ns#DerivativeWorks" /></cc:License></rdf:RDF></metadata></svg>